<svg width="389" height="24" viewBox="0 0 389 94" fill="none" xmlns="http://www.w3.org/2000/svg">
<path d="M16.1023 74H0.284091L24.3864 4.18182H43.4091L67.4773 74H51.6591L34.1705 20.1364H33.625L16.1023 74ZM15.1136 46.5568H52.4773V58.0795H15.1136V46.5568ZM90.1307 43.7273V74H75.608V21.6364H89.4489V30.875H90.0625C91.2216 27.8295 93.1648 25.4205 95.892 23.6477C98.6193 21.8523 101.926 20.9545 105.812 20.9545C109.449 20.9545 112.619 21.75 115.324 23.3409C118.028 24.9318 120.131 27.2045 121.631 30.1591C123.131 33.0909 123.881 36.5909 123.881 40.6591V74H109.358V43.25C109.381 40.0455 108.563 37.5455 106.903 35.75C105.244 33.9318 102.96 33.0227 100.051 33.0227C98.0966 33.0227 96.3693 33.4432 94.8693 34.2841C93.392 35.125 92.233 36.3523 91.392 37.9659C90.5739 39.5568 90.1534 41.4773 90.1307 43.7273ZM142.418 93.6364C140.577 93.6364 138.849 93.4886 137.236 93.1932C135.645 92.9205 134.327 92.5682 133.281 92.1364L136.554 81.2955C138.259 81.8182 139.793 82.1023 141.156 82.1477C142.543 82.1932 143.736 81.875 144.736 81.1932C145.759 80.5114 146.588 79.3523 147.224 77.7159L148.077 75.5L129.293 21.6364H144.565L155.406 60.0909H155.952L166.895 21.6364H182.27L161.918 79.6591C160.94 82.4773 159.611 84.9318 157.929 87.0227C156.27 89.1364 154.168 90.7614 151.622 91.8977C149.077 93.0568 146.009 93.6364 142.418 93.6364ZM217.554 21.6364V32.5455H186.02V21.6364H217.554ZM193.179 9.09091H207.702V57.9091C207.702 59.25 207.906 60.2955 208.315 61.0455C208.724 61.7727 209.293 62.2841 210.02 62.5795C210.77 62.875 211.634 63.0227 212.611 63.0227C213.293 63.0227 213.974 62.9659 214.656 62.8523C215.338 62.7159 215.861 62.6136 216.224 62.5455L218.509 73.3523C217.781 73.5795 216.759 73.8409 215.44 74.1364C214.122 74.4545 212.52 74.6477 210.634 74.7159C207.134 74.8523 204.065 74.3864 201.429 73.3182C198.815 72.25 196.781 70.5909 195.327 68.3409C193.872 66.0909 193.156 63.25 193.179 59.8182V9.09091ZM227.014 74V21.6364H241.537V74H227.014ZM234.31 14.8864C232.151 14.8864 230.298 14.1705 228.753 12.7386C227.23 11.2841 226.469 9.54545 226.469 7.52272C226.469 5.52272 227.23 3.80682 228.753 2.375C230.298 0.920452 232.151 0.193178 234.31 0.193178C236.469 0.193178 238.31 0.920452 239.832 2.375C241.378 3.80682 242.151 5.52272 242.151 7.52272C242.151 9.54545 241.378 11.2841 239.832 12.7386C238.31 14.1705 236.469 14.8864 234.31 14.8864ZM253.17 74V21.6364H267.011V30.875H267.625C268.716 27.8068 270.534 25.3864 273.08 23.6136C275.625 21.8409 278.67 20.9545 282.216 20.9545C285.807 20.9545 288.864 21.8523 291.386 23.6477C293.909 25.4205 295.591 27.8295 296.432 30.875H296.977C298.045 27.875 299.977 25.4773 302.773 23.6818C305.591 21.8636 308.92 20.9545 312.761 20.9545C317.648 20.9545 321.614 22.5114 324.659 25.625C327.727 28.7159 329.261 33.1023 329.261 38.7841V74H314.773V41.6477C314.773 38.7386 314 36.5568 312.455 35.1023C310.909 33.6477 308.977 32.9205 306.659 32.9205C304.023 32.9205 301.966 33.7614 300.489 35.4432C299.011 37.1023 298.273 39.2955 298.273 42.0227V74H284.193V41.3409C284.193 38.7727 283.455 36.7273 281.977 35.2045C280.523 33.6818 278.602 32.9205 276.216 32.9205C274.602 32.9205 273.148 33.3295 271.852 34.1477C270.58 34.9432 269.568 36.0682 268.818 37.5227C268.068 38.9545 267.693 40.6364 267.693 42.5682V74H253.17ZM364.597 75.0227C359.21 75.0227 354.574 73.9318 350.688 71.75C346.824 69.5455 343.847 66.4318 341.756 62.4091C339.665 58.3636 338.619 53.5795 338.619 48.0568C338.619 42.6705 339.665 37.9432 341.756 33.875C343.847 29.8068 346.79 26.6364 350.585 24.3636C354.403 22.0909 358.881 20.9545 364.017 20.9545C367.472 20.9545 370.688 21.5114 373.665 22.625C376.665 23.7159 379.278 25.3636 381.506 27.5682C383.756 29.7727 385.506 32.5455 386.756 35.8864C388.006 39.2045 388.631 43.0909 388.631 47.5455V51.5341H344.415V42.5341H374.96C374.96 40.4432 374.506 38.5909 373.597 36.9773C372.688 35.3636 371.426 34.1023 369.812 33.1932C368.222 32.2614 366.369 31.7955 364.256 31.7955C362.051 31.7955 360.097 32.3068 358.392 33.3295C356.71 34.3295 355.392 35.6818 354.438 37.3864C353.483 39.0682 352.994 40.9432 352.972 43.0114V51.5682C352.972 54.1591 353.449 56.3977 354.403 58.2841C355.381 60.1705 356.756 61.625 358.528 62.6477C360.301 63.6705 362.403 64.1818 364.835 64.1818C366.449 64.1818 367.926 63.9545 369.267 63.5C370.608 63.0455 371.756 62.3636 372.71 61.4545C373.665 60.5455 374.392 59.4318 374.892 58.1136L388.324 59C387.642 62.2273 386.244 65.0455 384.131 67.4545C382.04 69.8409 379.335 71.7045 376.017 73.0455C372.722 74.3636 368.915 75.0227 364.597 75.0227Z" fill="url(#paint0_linear_1_28)"/>
<defs>
<linearGradient id="paint0_linear_1_28" x1="23.5104" y1="12.5" x2="390.742" y2="50.6154" gradientUnits="userSpaceOnUse">
<stop stop-color="#93F7FD"/>
<stop offset="1" stop-color="#B39EF7"/>
</linearGradient>
</defs>
</svg>
