<svg width="474" height="90" viewBox="0 0 474 90" fill="none" xmlns="http://www.w3.org/2000/svg">
<path d="M16.1023 70H0.284091L24.3864 0.181816H43.4091L67.4773 70H51.6591L34.1705 16.1364H33.625L16.1023 70ZM15.1136 42.5568H52.4773V54.0795H15.1136V42.5568ZM90.1307 39.7273V70H75.608V17.6364H89.4489V26.875H90.0625C91.2216 23.8295 93.1648 21.4205 95.892 19.6477C98.6193 17.8523 101.926 16.9545 105.812 16.9545C109.449 16.9545 112.619 17.75 115.324 19.3409C118.028 20.9318 120.131 23.2045 121.631 26.1591C123.131 29.0909 123.881 32.5909 123.881 36.6591V70H109.358V39.25C109.381 36.0455 108.563 33.5455 106.903 31.75C105.244 29.9318 102.96 29.0227 100.051 29.0227C98.0966 29.0227 96.3693 29.4432 94.8693 30.2841C93.392 31.125 92.233 32.3523 91.392 33.9659C90.5739 35.5568 90.1534 37.4773 90.1307 39.7273ZM142.418 89.6364C140.577 89.6364 138.849 89.4886 137.236 89.1932C135.645 88.9205 134.327 88.5682 133.281 88.1364L136.554 77.2955C138.259 77.8182 139.793 78.1023 141.156 78.1477C142.543 78.1932 143.736 77.875 144.736 77.1932C145.759 76.5114 146.588 75.3523 147.224 73.7159L148.077 71.5L129.293 17.6364H144.565L155.406 56.0909H155.952L166.895 17.6364H182.27L161.918 75.6591C160.94 78.4773 159.611 80.9318 157.929 83.0227C156.27 85.1364 154.168 86.7614 151.622 87.8977C149.077 89.0568 146.009 89.6364 142.418 89.6364ZM200.031 70L185.781 17.6364H200.474L208.588 52.8182H209.065L217.52 17.6364H231.94L240.531 52.6136H240.974L248.952 17.6364H263.611L249.395 70H234.02L225.02 37.0682H224.372L215.372 70H200.031ZM285.881 39.7273V70H271.358V0.181816H285.472V26.875H286.085C287.267 23.7841 289.176 21.3636 291.812 19.6136C294.449 17.8409 297.756 16.9545 301.733 16.9545C305.369 16.9545 308.54 17.75 311.244 19.3409C313.972 20.9091 316.085 23.1705 317.585 26.125C319.108 29.0568 319.858 32.5682 319.835 36.6591V70H305.312V39.25C305.335 36.0227 304.517 33.5114 302.858 31.7159C301.222 29.9205 298.926 29.0227 295.972 29.0227C293.994 29.0227 292.244 29.4432 290.722 30.2841C289.222 31.125 288.04 32.3523 287.176 33.9659C286.335 35.5568 285.903 37.4773 285.881 39.7273ZM355.128 71.0227C349.741 71.0227 345.105 69.9318 341.219 67.75C337.355 65.5455 334.378 62.4318 332.287 58.4091C330.196 54.3636 329.151 49.5795 329.151 44.0568C329.151 38.6705 330.196 33.9432 332.287 29.875C334.378 25.8068 337.321 22.6364 341.116 20.3636C344.935 18.0909 349.412 16.9545 354.548 16.9545C358.003 16.9545 361.219 17.5114 364.196 18.625C367.196 19.7159 369.81 21.3636 372.037 23.5682C374.287 25.7727 376.037 28.5455 377.287 31.8864C378.537 35.2045 379.162 39.0909 379.162 43.5455V47.5341H334.946V38.5341H365.491C365.491 36.4432 365.037 34.5909 364.128 32.9773C363.219 31.3636 361.957 30.1023 360.344 29.1932C358.753 28.2614 356.901 27.7955 354.787 27.7955C352.582 27.7955 350.628 28.3068 348.923 29.3295C347.241 30.3295 345.923 31.6818 344.969 33.3864C344.014 35.0682 343.526 36.9432 343.503 39.0114V47.5682C343.503 50.1591 343.98 52.3977 344.935 54.2841C345.912 56.1705 347.287 57.625 349.06 58.6477C350.832 59.6705 352.935 60.1818 355.366 60.1818C356.98 60.1818 358.457 59.9545 359.798 59.5C361.139 59.0455 362.287 58.3636 363.241 57.4545C364.196 56.5455 364.923 55.4318 365.423 54.1136L378.855 55C378.173 58.2273 376.776 61.0455 374.662 63.4545C372.571 65.8409 369.866 67.7045 366.548 69.0455C363.253 70.3636 359.446 71.0227 355.128 71.0227ZM388.639 70V17.6364H402.719V26.7727H403.264C404.219 23.5227 405.821 21.0682 408.071 19.4091C410.321 17.7273 412.912 16.8864 415.844 16.8864C416.571 16.8864 417.355 16.9318 418.196 17.0227C419.037 17.1136 419.776 17.2386 420.412 17.3977V30.2841C419.73 30.0795 418.787 29.8977 417.582 29.7386C416.378 29.5795 415.276 29.5 414.276 29.5C412.139 29.5 410.23 29.9659 408.548 30.8977C406.889 31.8068 405.571 33.0795 404.594 34.7159C403.639 36.3523 403.162 38.2386 403.162 40.375V70H388.639ZM449.347 71.0227C443.96 71.0227 439.324 69.9318 435.438 67.75C431.574 65.5455 428.597 62.4318 426.506 58.4091C424.415 54.3636 423.369 49.5795 423.369 44.0568C423.369 38.6705 424.415 33.9432 426.506 29.875C428.597 25.8068 431.54 22.6364 435.335 20.3636C439.153 18.0909 443.631 16.9545 448.767 16.9545C452.222 16.9545 455.438 17.5114 458.415 18.625C461.415 19.7159 464.028 21.3636 466.256 23.5682C468.506 25.7727 470.256 28.5455 471.506 31.8864C472.756 35.2045 473.381 39.0909 473.381 43.5455V47.5341H429.165V38.5341H459.71C459.71 36.4432 459.256 34.5909 458.347 32.9773C457.438 31.3636 456.176 30.1023 454.562 29.1932C452.972 28.2614 451.119 27.7955 449.006 27.7955C446.801 27.7955 444.847 28.3068 443.142 29.3295C441.46 30.3295 440.142 31.6818 439.188 33.3864C438.233 35.0682 437.744 36.9432 437.722 39.0114V47.5682C437.722 50.1591 438.199 52.3977 439.153 54.2841C440.131 56.1705 441.506 57.625 443.278 58.6477C445.051 59.6705 447.153 60.1818 449.585 60.1818C451.199 60.1818 452.676 59.9545 454.017 59.5C455.358 59.0455 456.506 58.3636 457.46 57.4545C458.415 56.5455 459.142 55.4318 459.642 54.1136L473.074 55C472.392 58.2273 470.994 61.0455 468.881 63.4545C466.79 65.8409 464.085 67.7045 460.767 69.0455C457.472 70.3636 453.665 71.0227 449.347 71.0227Z" fill="url(#paint0_linear_1_17)"/>
<defs>
<linearGradient id="paint0_linear_1_17" x1="29" y1="8.5" x2="473" y2="64.5" gradientUnits="userSpaceOnUse">
<stop stop-color="#93F7FD"/>
<stop offset="1" stop-color="#B39EF7"/>
</linearGradient>
</defs>
</svg>
