<svg width="236" height="1" viewBox="0 0 236 91" fill="none" xmlns="http://www.w3.org/2000/svg">
<path d="M40.9432 21.2614C40.6705 18.5114 39.5 16.375 37.4318 14.8523C35.3636 13.3295 32.5568 12.5682 29.0114 12.5682C26.6023 12.5682 24.5682 12.9091 22.9091 13.5909C21.25 14.25 19.9773 15.1705 19.0909 16.3523C18.2273 17.5341 17.7955 18.875 17.7955 20.375C17.75 21.625 18.0114 22.7159 18.5795 23.6477C19.1705 24.5795 19.9773 25.3864 21 26.0682C22.0227 26.7273 23.2045 27.3068 24.5455 27.8068C25.8864 28.2841 27.3182 28.6932 28.8409 29.0341L35.1136 30.5341C38.1591 31.2159 40.9545 32.125 43.5 33.2614C46.0455 34.3977 48.25 35.7955 50.1136 37.4545C51.9773 39.1136 53.4205 41.0682 54.4432 43.3182C55.4886 45.5682 56.0227 48.1477 56.0455 51.0568C56.0227 55.3295 54.9318 59.0341 52.7727 62.1705C50.6364 65.2841 47.5455 67.7045 43.5 69.4318C39.4773 71.1364 34.625 71.9886 28.9432 71.9886C23.3068 71.9886 18.3977 71.125 14.2159 69.3977C10.0568 67.6705 6.80682 65.1136 4.46591 61.7273C2.14773 58.3182 0.931818 54.1023 0.818182 49.0795H15.1023C15.2614 51.4205 15.9318 53.375 17.1136 54.9432C18.3182 56.4886 19.9205 57.6591 21.9205 58.4545C23.9432 59.2273 26.2273 59.6136 28.7727 59.6136C31.2727 59.6136 33.4432 59.25 35.2841 58.5227C37.1477 57.7955 38.5909 56.7841 39.6136 55.4886C40.6364 54.1932 41.1477 52.7045 41.1477 51.0227C41.1477 49.4545 40.6818 48.1364 39.75 47.0682C38.8409 46 37.5 45.0909 35.7273 44.3409C33.9773 43.5909 31.8295 42.9091 29.2841 42.2955L21.6818 40.3864C15.7955 38.9545 11.1477 36.7159 7.73864 33.6705C4.32955 30.625 2.63636 26.5227 2.65909 21.3636C2.63636 17.1364 3.76136 13.4432 6.03409 10.2841C8.32955 7.125 11.4773 4.65909 15.4773 2.88636C19.4773 1.11363 24.0227 0.22727 29.1136 0.22727C34.2955 0.22727 38.8182 1.11363 42.6818 2.88636C46.5682 4.65909 49.5909 7.125 51.75 10.2841C53.9091 13.4432 55.0227 17.1023 55.0909 21.2614H40.9432ZM80.2244 40.7273V71H65.7017V1.18182H79.8153V27.875H80.429C81.6108 24.7841 83.5199 22.3636 86.1562 20.6136C88.7926 18.8409 92.0994 17.9545 96.0767 17.9545C99.7131 17.9545 102.884 18.75 105.588 20.3409C108.315 21.9091 110.429 24.1705 111.929 27.125C113.452 30.0568 114.202 33.5682 114.179 37.6591V71H99.6562V40.25C99.679 37.0227 98.8608 34.5114 97.2017 32.7159C95.5653 30.9205 93.2699 30.0227 90.3153 30.0227C88.3381 30.0227 86.5881 30.4432 85.0653 31.2841C83.5653 32.125 82.3835 33.3523 81.5199 34.9659C80.679 36.5568 80.2472 38.4773 80.2244 40.7273ZM149.267 72.0227C143.972 72.0227 139.392 70.8977 135.528 68.6477C131.688 66.375 128.722 63.2159 126.631 59.1705C124.54 55.1023 123.494 50.3864 123.494 45.0227C123.494 39.6136 124.54 34.8864 126.631 30.8409C128.722 26.7727 131.688 23.6136 135.528 21.3636C139.392 19.0909 143.972 17.9545 149.267 17.9545C154.562 17.9545 159.131 19.0909 162.972 21.3636C166.835 23.6136 169.812 26.7727 171.903 30.8409C173.994 34.8864 175.04 39.6136 175.04 45.0227C175.04 50.3864 173.994 55.1023 171.903 59.1705C169.812 63.2159 166.835 66.375 162.972 68.6477C159.131 70.8977 154.562 72.0227 149.267 72.0227ZM149.335 60.7727C151.744 60.7727 153.756 60.0909 155.369 58.7273C156.983 57.3409 158.199 55.4545 159.017 53.0682C159.858 50.6818 160.278 47.9659 160.278 44.9205C160.278 41.875 159.858 39.1591 159.017 36.7727C158.199 34.3864 156.983 32.5 155.369 31.1136C153.756 29.7273 151.744 29.0341 149.335 29.0341C146.903 29.0341 144.858 29.7273 143.199 31.1136C141.563 32.5 140.324 34.3864 139.483 36.7727C138.665 39.1591 138.256 41.875 138.256 44.9205C138.256 47.9659 138.665 50.6818 139.483 53.0682C140.324 55.4545 141.563 57.3409 143.199 58.7273C144.858 60.0909 146.903 60.7727 149.335 60.7727ZM184.483 90.6364V18.6364H198.801V27.4318H199.449C200.085 26.0227 201.006 24.5909 202.21 23.1364C203.438 21.6591 205.028 20.4318 206.983 19.4545C208.96 18.4545 211.415 17.9545 214.347 17.9545C218.165 17.9545 221.688 18.9545 224.915 20.9545C228.142 22.9318 230.722 25.9205 232.653 29.9205C234.585 33.8977 235.551 38.8864 235.551 44.8864C235.551 50.7273 234.608 55.6591 232.722 59.6818C230.858 63.6818 228.313 66.7159 225.085 68.7841C221.881 70.8295 218.29 71.8523 214.312 71.8523C211.494 71.8523 209.097 71.3864 207.119 70.4545C205.165 69.5227 203.562 68.3523 202.312 66.9432C201.062 65.5114 200.108 64.0682 199.449 62.6136H199.006V90.6364H184.483ZM198.699 44.8182C198.699 47.9318 199.131 50.6477 199.994 52.9659C200.858 55.2841 202.108 57.0909 203.744 58.3864C205.381 59.6591 207.369 60.2955 209.71 60.2955C212.074 60.2955 214.074 59.6477 215.71 58.3523C217.347 57.0341 218.585 55.2159 219.426 52.8977C220.29 50.5568 220.722 47.8636 220.722 44.8182C220.722 41.7955 220.301 39.1364 219.46 36.8409C218.619 34.5455 217.381 32.75 215.744 31.4545C214.108 30.1591 212.097 29.5114 209.71 29.5114C207.347 29.5114 205.347 30.1364 203.71 31.3864C202.097 32.6364 200.858 34.4091 199.994 36.7045C199.131 39 198.699 41.7045 198.699 44.8182Z" fill="url(#paint0_linear_1_5)"/>
<defs>
<linearGradient id="paint0_linear_1_5" x1="18" y1="5.99999" x2="234.5" y2="68" gradientUnits="userSpaceOnUse">
<stop stop-color="#B2FBF2"/>
<stop offset="1" stop-color="#BB93FD"/>
</linearGradient>
</defs>
</svg>
