<svg width="155" height="298" viewBox="0 0 155 298" fill="none" xmlns="http://www.w3.org/2000/svg">
<g id="cart">
<g id="cart_2">
<path d="M0 292V121.551H79.8485H155V292H75.1515H0Z" fill="url(#paint0_linear_12_41)"/>
<path d="M32.8788 116.816C32.8788 99.4558 41.1252 60 75.1515 60C122.121 60 122.121 107.347 122.121 116.816M0 121.551V292H75.1515H155V121.551H79.8485H0Z" stroke="url(#paint1_linear_12_41)" stroke-width="29" stroke-linejoin="round"/>
</g>
<path id="temilla" d="M24.1364 149.784V145.727H43.25V149.784H36.125V169H31.2614V149.784H24.1364ZM51.7301 169.341C49.9347 169.341 48.3892 168.977 47.0938 168.25C45.8059 167.515 44.8134 166.477 44.1165 165.136C43.4195 163.788 43.071 162.193 43.071 160.352C43.071 158.557 43.4195 156.981 44.1165 155.625C44.8134 154.269 45.7945 153.212 47.0597 152.455C48.3324 151.697 49.8248 151.318 51.5369 151.318C52.6884 151.318 53.7604 151.504 54.7528 151.875C55.7528 152.239 56.6241 152.788 57.3665 153.523C58.1165 154.258 58.6998 155.182 59.1165 156.295C59.5331 157.402 59.7415 158.697 59.7415 160.182V161.511H45.0028V158.511H55.1847C55.1847 157.814 55.0331 157.197 54.7301 156.659C54.4271 156.121 54.0066 155.701 53.4688 155.398C52.9384 155.087 52.321 154.932 51.6165 154.932C50.8816 154.932 50.2301 155.102 49.6619 155.443C49.1013 155.777 48.6619 156.227 48.3438 156.795C48.0256 157.356 47.8627 157.981 47.8551 158.67V161.523C47.8551 162.386 48.0142 163.133 48.3324 163.761C48.6581 164.39 49.1165 164.875 49.7074 165.216C50.2983 165.557 50.9991 165.727 51.8097 165.727C52.3475 165.727 52.84 165.652 53.2869 165.5C53.7339 165.348 54.1165 165.121 54.4347 164.818C54.7528 164.515 54.9953 164.144 55.1619 163.705L59.6392 164C59.4119 165.076 58.946 166.015 58.2415 166.818C57.5445 167.614 56.643 168.235 55.5369 168.682C54.4384 169.121 53.1695 169.341 51.7301 169.341ZM62.9006 169V151.545H67.5142V154.625H67.7188C68.0824 153.602 68.6884 152.795 69.5369 152.205C70.3854 151.614 71.4006 151.318 72.5824 151.318C73.7794 151.318 74.7983 151.617 75.6392 152.216C76.4801 152.807 77.0407 153.61 77.321 154.625H77.5028C77.8589 153.625 78.5028 152.826 79.4347 152.227C80.3741 151.621 81.4839 151.318 82.7642 151.318C84.393 151.318 85.715 151.837 86.7301 152.875C87.7528 153.905 88.2642 155.367 88.2642 157.261V169H83.4347V158.216C83.4347 157.246 83.1771 156.519 82.6619 156.034C82.1468 155.549 81.5028 155.307 80.7301 155.307C79.8513 155.307 79.1657 155.587 78.6733 156.148C78.1809 156.701 77.9347 157.432 77.9347 158.341V169H73.2415V158.114C73.2415 157.258 72.9953 156.576 72.5028 156.068C72.018 155.561 71.3778 155.307 70.5824 155.307C70.0445 155.307 69.5597 155.443 69.1278 155.716C68.7036 155.981 68.3665 156.356 68.1165 156.841C67.8665 157.318 67.7415 157.879 67.7415 158.523V169H62.9006ZM92.0881 169V151.545H96.929V169H92.0881ZM94.5199 149.295C93.8002 149.295 93.1828 149.057 92.6676 148.58C92.16 148.095 91.9062 147.515 91.9062 146.841C91.9062 146.174 92.16 145.602 92.6676 145.125C93.1828 144.64 93.8002 144.398 94.5199 144.398C95.2396 144.398 95.8532 144.64 96.3608 145.125C96.8759 145.602 97.1335 146.174 97.1335 146.841C97.1335 147.515 96.8759 148.095 96.3608 148.58C95.8532 149.057 95.2396 149.295 94.5199 149.295ZM105.648 145.727V169H100.807V145.727H105.648ZM114.366 145.727V169H109.526V145.727H114.366ZM123.222 169.33C122.108 169.33 121.116 169.136 120.244 168.75C119.373 168.356 118.684 167.777 118.176 167.011C117.676 166.239 117.426 165.277 117.426 164.125C117.426 163.155 117.604 162.341 117.96 161.682C118.316 161.023 118.801 160.492 119.415 160.091C120.028 159.689 120.725 159.386 121.506 159.182C122.294 158.977 123.119 158.833 123.983 158.75C124.998 158.644 125.816 158.545 126.438 158.455C127.059 158.356 127.509 158.212 127.79 158.023C128.07 157.833 128.21 157.553 128.21 157.182V157.114C128.21 156.394 127.983 155.837 127.528 155.443C127.081 155.049 126.445 154.852 125.619 154.852C124.748 154.852 124.055 155.045 123.54 155.432C123.025 155.811 122.684 156.288 122.517 156.864L118.04 156.5C118.267 155.439 118.714 154.523 119.381 153.75C120.047 152.97 120.907 152.371 121.96 151.955C123.021 151.53 124.248 151.318 125.642 151.318C126.612 151.318 127.54 151.432 128.426 151.659C129.32 151.886 130.112 152.239 130.801 152.716C131.498 153.193 132.047 153.807 132.449 154.557C132.85 155.299 133.051 156.189 133.051 157.227V169H128.46V166.58H128.324C128.044 167.125 127.669 167.606 127.199 168.023C126.729 168.432 126.165 168.754 125.506 168.989C124.847 169.216 124.085 169.33 123.222 169.33ZM124.608 165.989C125.32 165.989 125.949 165.848 126.494 165.568C127.04 165.28 127.468 164.894 127.778 164.409C128.089 163.924 128.244 163.375 128.244 162.761V160.909C128.093 161.008 127.884 161.098 127.619 161.182C127.362 161.258 127.07 161.33 126.744 161.398C126.419 161.458 126.093 161.515 125.767 161.568C125.441 161.614 125.146 161.655 124.881 161.693C124.313 161.777 123.816 161.909 123.392 162.091C122.968 162.273 122.638 162.519 122.403 162.83C122.169 163.133 122.051 163.511 122.051 163.966C122.051 164.625 122.29 165.129 122.767 165.477C123.252 165.818 123.866 165.989 124.608 165.989Z" fill="black"/>
<path id="hand" d="M78.2824 63.9563C80.4438 64.359 82.6641 64.2402 84.759 63.611C86.8539 62.9818 88.7659 61.8597 90.3324 60.3369C91.9008 58.8145 93.0816 56.9337 93.7771 54.8523C94.4736 52.7703 94.6654 50.5463 94.3368 48.3632L88.6142 10.3546L69.1831 8.50876L66.8183 49.3016C66.6205 52.7108 67.6804 56.088 69.7949 58.7905C71.9083 61.4938 74.9303 63.3332 78.2824 63.9563Z" fill="#FFB8B8"/>
<circle id="circle" cx="82" cy="269" r="29" fill="url(#paint2_linear_12_41)"/>
</g>
<defs>
<linearGradient id="paint0_linear_12_41" x1="77.5" y1="60" x2="77.5" y2="292" gradientUnits="userSpaceOnUse">
<stop stop-color="#FDC2C7"/>
<stop offset="1" stop-color="#F7E3FA"/>
</linearGradient>
<linearGradient id="paint1_linear_12_41" x1="77.5" y1="60" x2="77.5" y2="292" gradientUnits="userSpaceOnUse">
<stop stop-color="#FFB8B8"/>
<stop offset="1" stop-color="#F6DFFA" stop-opacity="0.866667"/>
</linearGradient>
<linearGradient id="paint2_linear_12_41" x1="82" y1="240" x2="82" y2="298" gradientUnits="userSpaceOnUse">
<stop stop-color="#BB93FD"/>
<stop offset="1" stop-color="#FFC9B8"/>
</linearGradient>
</defs>
</svg>
