<svg width="169" height="51" viewBox="0 0 169 51" fill="none" xmlns="http://www.w3.org/2000/svg">
<g id="foura">
<path id="lfetv" d="M14 27.3069C30.2093 35.3762 66.555 46.6731 82.2636 27.3069C101.899 3.09911 139.326 14.147 150 27.3069" stroke="url(#paint0_linear_16_44)" stroke-width="26" stroke-linecap="round"/>
<path id="thin" d="M144.269 37.8037C144.496 38.6747 144.927 39.4768 145.524 40.1436C146.122 40.8104 146.871 41.3236 147.708 41.6391C148.545 41.9553 149.447 42.0655 150.339 41.961C151.232 41.8568 152.09 41.5408 152.841 41.0391L163.075 34.2095C164.752 33.0897 165.452 30.9711 164.771 29.0723V29.0723C163.93 26.7289 161.312 25.5515 159.002 26.4777L147.704 31.0052C146.407 31.5252 145.34 32.5057 144.706 33.7596C144.072 35.0132 143.917 36.4531 144.269 37.8037Z" fill="#FFB8B8"/>
</g>
<defs>
<linearGradient id="paint0_linear_16_44" x1="14" y1="25.3573" x2="152.386" y2="27.2816" gradientUnits="userSpaceOnUse">
<stop stop-color="#BB93FD"/>
<stop offset="1" stop-color="#F7E1E7"/>
</linearGradient>
</defs>
</svg>
